# xmcd
#
# Track frame offsets: 
#        187
#        21720
#        41340
#        63790
#        80932
#        99860
#        120697
#        139870
#        153830
#        179232
#        192615
#        206557
#        229962
#
# Disc length: 3309 seconds
#
# Revision: 2
# Processed by: cddbd v1.5.2PL0 Copyright (c) Steve Scherf et al.
# Submitted via: ExactAudioCopyFreeDBPlugin 1.0
#
DISCID=bd0ceb0d
DTITLE=Acoustic Club - 夢の城
DYEAR=1986
DGENRE=New Age
TTITLE0=I'm All Alone
TTITLE1=貿易風
TTITLE2=Winding Street
TTITLE3=ジャンゴの夢
TTITLE4=Caravan
TTITLE5=夢の城
TTITLE6=Fairy
TTITLE7=Dream
TTITLE8=Nuages
TTITLE9=夜も昼も
TTITLE10=Stardust
TTITLE11=Bewitched You
TTITLE12=Indian Love Call
EXTD=YEAR: 1986
EXTT0=
EXTT1=
EXTT2=
EXTT3=
EXTT4=
EXTT5=
EXTT6=
EXTT7=
EXTT8=
EXTT9=
EXTT10=
EXTT11=
EXTT12=
PLAYORDER=
